PathFileType	4	(X/Y/Z)	/Users/itak/Documents/Research/Walk-IL/dataset/trc/00272_00010.trc
DataRate	CameraRate	NumFrames	NumMarkers	Units	OrigDataRate	OrigDataStartFrame	OrigNumFrames
100.000000	100.000000	4	53	mm	100.000000	320	640
Frame#	Time	RPSI			LPSI			L3			STRN			T10			C7			CLAV			RBAK			LBAK			LSHO			LUPA			LAEL			LAOL			LWTS			LWPS			LFRA			LIFD			LHPS			LHTS			RSHO			RUPA			RAEL			RAOL			RWTS			RWPS			RFRA			RIFD			RHTS			RHPS			RBHD			LFHD			RFHD			LBHD			LHIP			RHIP			RASI			LASI			LKNE			LTHI			LANK			LTIP			LTOE			LMT1			LMT5			LHEE			RKNE			RTHI			RTIP			RTOE			RMT1			RMT5			RHEE			RANK			
		X1	Y1	Z1	X2	Y2	Z2	X3	Y3	Z3	X4	Y4	Z4	X5	Y5	Z5	X6	Y6	Z6	X7	Y7	Z7	X8	Y8	Z8	X9	Y9	Z9	X10	Y10	Z10	X11	Y11	Z11	X12	Y12	Z12	X13	Y13	Z13	X14	Y14	Z14	X15	Y15	Z15	X16	Y16	Z16	X17	Y17	Z17	X18	Y18	Z18	X19	Y19	Z19	X20	Y20	Z20	X21	Y21	Z21	X22	Y22	Z22	X23	Y23	Z23	X24	Y24	Z24	X25	Y25	Z25	X26	Y26	Z26	X27	Y27	Z27	X28	Y28	Z28	X29	Y29	Z29	X30	Y30	Z30	X31	Y31	Z31	X32	Y32	Z32	X33	Y33	Z33	X34	Y34	Z34	X35	Y35	Z35	X36	Y36	Z36	X37	Y37	Z37	X38	Y38	Z38	X39	Y39	Z39	X40	Y40	Z40	X41	Y41	Z41	X42	Y42	Z42	X43	Y43	Z43	X44	Y44	Z44	X45	Y45	Z45	X46	Y46	Z46	X47	Y47	Z47	X48	Y48	Z48	X49	Y49	Z49	X50	Y50	Z50	X51	Y51	Z51	X52	Y52	Z52	X53	Y53	Z53	

321	3.2	19.59455490112305	972.1097412109375	71.01039886474609	39.83780288696289	965.7537231445312	-101.9370651245117	48.48184204101562	1047.404541015625	-7.016316413879395	305.8179626464844	1207.893310546875	-26.30902671813965	38.67054748535156	1164.84716796875	-6.82111120223999	90.0814208984375	1400.928344726562	-47.88661956787109	246.4973449707031	1310.138916015625	-39.99660491943359	41.86941909790039	1279.059326171875	48.89471054077148	66.07782745361328	1355.249145507812	-144.8977966308594	154.4638977050781	1353.009155273438	-201.7628784179688	108.8894348144531	1237.084350585938	-263.0892944335938	78.43833923339844	1039.629760742188	-267.7309265136719	24.18040657043457	1035.829833984375	-200.1059112548828	147.1857147216797	818.3530883789062	-237.7563934326172	97.90842437744141	806.7350463867188	-289.228271484375	78.95875549316406	936.3624877929688	-278.3025512695312	142.2789459228516	631.4297485351562	-230.7859802246094	98.14778137207031	717.7763061523438	-283.6930847167969	159.1182861328125	716.94580078125	-261.1516723632812	175.9337921142578	1393.952514648438	103.8919982910156	183.7562561035156	1343.619262695312	176.6907196044922	233.8048400878906	1093.104614257812	264.9229736328125	173.4981536865234	1060.219970703125	197.5937194824219	398.094970703125	950.3448486328125	163.2295074462891	398.1059265136719	929.385986328125	245.9721832275391	283.3963928222656	1045.308227539062	266.7974243164062	523.3748168945312	823.9268798828125	131.1570892333984	500.2201538085938	892.7189331054688	152.9816284179688	486.971923828125	861.8287963867188	214.3634033203125	123.032341003418	1565.712524414062	3.74988317489624	283.8719787597656	1585.595336914062	-133.8605804443359	290.6271362304688	1594.027099609375	-41.2502555847168	112.6102905273438	1541.787841796875	-141.9124603271484	117.9389877319336	920.2218017578125	-185.3898468017578	104.1744842529297	916.2136840820312	186.6735229492188	232.2086181640625	920.691162109375	130.3655700683594	249.8767700195312	930.3990478515625	-118.8382873535156	319.3773803710938	486.1161804199219	-136.2401885986328	268.6636352539062	616.8800659179688	-169.4961242675781	318.3181457519531	39.50237274169922	-73.94493865966797	315.0619201660156	253.1452941894531	-115.839241027832	525.4450073242188	32.34078979492188	-8.653597831726074	454.3020324707031	27.50205612182617	27.56488227844238	444.9173583984375	42.66058349609375	-83.49852752685547	272.6241455078125	36.26731491088867	-14.15556240081787	97.56728363037109	440.5457763671875	148.568603515625	148.4268798828125	700.2349243164062	182.8667144775391	36.97407913208008	329.2870178222656	126.9131698608398	-92.74265289306641	41.00092315673828	0.4945617616176605	-135.5153961181641	60.1197395324707	-24.6912670135498	-147.9812927246094	45.35962677001953	93.37975311279297	-264.4387512207031	164.4770202636719	57.73666381835938	-223.2654724121094	119.7804489135742	92.88597106933594	
322	3.21	8.062533378601074	970.6103515625	70.69911193847656	29.28223037719727	963.4559326171875	-102.1040954589844	37.69553756713867	1046.836059570312	-7.143045425415039	296.6742553710938	1205.783569335938	-24.00618934631348	28.64642906188965	1164.580200195312	-6.653564453125	82.45884704589844	1400.247314453125	-46.64422225952148	238.0708618164062	1308.374145507812	-37.7960205078125	32.61484527587891	1278.637817382812	49.39856719970703	58.94620132446289	1354.96630859375	-144.0140686035156	147.7771606445312	1352.040161132812	-200.0226898193359	102.6797561645508	1236.604248046875	-262.3760375976562	72.01956176757812	1038.895263671875	-268.2113037109375	15.37440967559814	1035.445922851562	-202.1817779541016	142.7732391357422	819.15771484375	-235.4310455322266	95.46422576904297	806.9368286132812	-288.6549682617188	74.08615112304688	936.201171875	-278.4263916015625	139.8221893310547	632.2913208007812	-228.2877655029297	96.83798980712891	717.8671875	-283.0645446777344	157.0144805908203	718.3829345703125	-258.1113891601562	167.0428314208984	1392.383666992188	105.7951812744141	174.0411834716797	1341.677734375	178.4388275146484	222.0540618896484	1090.525512695312	266.0256042480469	161.6890258789062	1058.30224609375	198.2962951660156	386.4034423828125	948.7899780273438	163.4496459960938	386.5023498535156	927.2267456054688	246.0352172851562	271.546142578125	1042.764038085938	267.6906127929688	512.2490844726562	823.3780517578125	130.2816009521484	488.7994995117188	891.8839111328125	152.7511749267578	475.7530212402344	860.3642578125	213.8741912841797	115.9749298095703	1564.546752929688	5.115659713745117	277.0079650878906	1583.734008789062	-132.3410949707031	283.6705017089844	1592.364135742188	-39.74820327758789	105.6495819091797	1540.330810546875	-140.5103759765625	108.6155319213867	918.1254272460938	-185.0116577148438	92.11045074462891	915.5878295898438	187.2163238525391	220.4183959960938	919.9043579101562	131.7416229248047	239.5665893554688	928.983642578125	-117.493537902832	313.8454284667969	486.3399963378906	-135.3228759765625	261.5431823730469	616.2386474609375	-168.3949737548828	318.8916931152344	39.81640625	-74.43379211425781	312.7265930175781	253.4707641601562	-115.6161117553711	525.6776733398438	32.15129470825195	-8.634335517883301	454.4732666015625	27.6378231048584	27.46640396118164	445.3927001953125	42.55820846557617	-83.71922302246094	272.9999084472656	36.52588653564453	-14.85039520263672	86.42767333984375	439.8950500488281	147.3675994873047	137.2896118164062	699.5491943359375	183.2894744873047	26.99892807006836	327.5962829589844	125.7612380981445	-93.69120788574219	41.58579635620117	0.7938801050186157	-138.5921630859375	59.61935806274414	-24.17129516601562	-150.5261383056641	43.42145156860352	93.72586822509766	-273.2677917480469	156.8705749511719	59.0008659362793	-229.8988189697266	113.6736373901367	93.52840423583984	
323	3.22	-3.520795822143555	969.15380859375	70.46727752685547	18.44878387451172	961.2109375	-102.2369155883789	26.85710525512695	1046.248413085938	-7.244091987609863	287.4481201171875	1203.6220703125	-21.70711517333984	18.60753631591797	1164.242553710938	-6.419111251831055	74.79234313964844	1399.519653320312	-45.30256652832031	229.5762634277344	1306.578369140625	-35.55871963500977	23.31804084777832	1278.13134765625	49.96762084960938	51.72803497314453	1354.611083984375	-143.0260620117188	140.9454650878906	1350.9765625	-198.2116088867188	96.19770812988281	1236.062622070312	-261.5929565429688	65.24048614501953	1038.154052734375	-268.7914123535156	6.373772144317627	1034.966796875	-204.3394165039062	138.1026763916016	820.0667724609375	-233.25	92.85565185546875	807.2894897460938	-288.1805419921875	68.90499877929688	936.0715942382812	-278.6425170898438	137.3242797851562	633.2514038085938	-226.1475219726562	95.50511169433594	718.1377563476562	-282.6397399902344	154.7583618164062	719.99365234375	-255.2473907470703	158.0272064208984	1390.705078125	107.8341903686523	164.1519165039062	1339.57373046875	180.3069610595703	209.8730316162109	1087.746826171875	267.2412719726562	149.5635833740234	1056.210083007812	199.0186004638672	374.3529968261719	946.98388671875	163.9653015136719	374.4023132324219	924.81103515625	246.3879699707031	259.2392272949219	1040.008422851562	268.7377624511719	500.7237854003906	822.485595703125	129.8876953125	476.9777526855469	890.711181640625	152.9576568603516	464.0438537597656	858.5821533203125	213.8114166259766	108.9165573120117	1563.3798828125	6.555323123931885	270.1380615234375	1581.821044921875	-130.7620544433594	276.7267456054688	1590.655151367188	-38.18769836425781	98.67596435546875	1538.848999023438	-139.0223236083984	99.19689178466797	916.08740234375	-184.7656555175781	80.11636352539062	915.02880859375	187.7658233642578	208.6577911376953	919.171875	132.9912719726562	229.0696258544922	927.5550537109375	-116.2769165039062	308.087646484375	486.6346435546875	-134.4836883544922	254.2382049560547	615.66455078125	-167.3922882080078	319.5028686523438	40.31423950195312	-74.98473358154297	310.3020935058594	253.9182281494141	-115.4842834472656	525.933349609375	31.96855926513672	-8.643173217773438	454.6590881347656	27.84187316894531	27.31110191345215	445.8760681152344	42.47923278808594	-84.00582122802734	273.450439453125	37.00570297241211	-15.57290744781494	75.20885467529297	439.2724914550781	145.9806671142578	126.2517623901367	698.9356689453125	183.6190185546875	17.0334587097168	325.9241638183594	124.4727554321289	-94.19955444335938	42.06026077270508	1.063718199729919	-141.3997344970703	59.37651443481445	-23.67798805236816	-152.9302368164062	41.70946502685547	94.04527282714844	-281.8327941894531	149.1133575439453	60.20901870727539	-236.2710418701172	107.5644836425781	94.15165710449219	
324	3.23	-15.13732433319092	967.7700805664062	70.32898712158203	7.324398517608643	959.0637817382812	-102.3324279785156	15.98648262023926	1045.658081054688	-7.308349609375	278.1559753417969	1201.427368164062	-19.43350028991699	8.568194389343262	1163.863403320312	-6.118515491485596	67.10043334960938	1398.778442382812	-43.86635208129883	221.0357513427734	1304.77099609375	-33.30169677734375	13.9949254989624	1277.572631835938	50.59835815429688	44.42393112182617	1354.221435546875	-141.9374237060547	133.968505859375	1349.856201171875	-196.3480682373047	89.42619323730469	1235.481323242188	-260.7393188476562	58.12247848510742	1037.448364257812	-269.4297485351562	-2.750098705291748	1034.40771484375	-206.5123138427734	133.1565246582031	821.0891723632812	-231.2426147460938	90.03281402587891	807.79736328125	-287.796142578125	63.41584777832031	935.9876708984375	-278.9307861328125	134.8485412597656	634.3311157226562	-224.3971099853516	94.09071350097656	718.6134643554688	-282.4079895019531	152.3132171630859	721.7302856445312	-252.6304473876953	148.9359741210938	1388.937133789062	109.9916305541992	154.136474609375	1337.335815429688	182.2773284912109	197.2788848876953	1084.80029296875	268.5492553710938	137.1456146240234	1053.97900390625	199.7412872314453	361.9497985839844	944.9168701171875	164.7861785888672	361.8004760742188	922.1257934570312	247.0372314453125	246.4957122802734	1037.062622070312	269.9273071289062	488.7956848144531	821.2238159179688	129.9951019287109	464.7676391601562	889.1747436523438	153.6299438476562	451.8257446289062	856.4507446289062	214.1915130615234	101.8609771728516	1562.234252929688	8.067419052124023	263.2665710449219	1579.903076171875	-129.1247863769531	269.7987670898438	1588.937255859375	-36.56735229492188	91.69621276855469	1537.380737304688	-137.4519348144531	89.62452697753906	914.1411743164062	-184.6050720214844	68.21895599365234	914.5540771484375	188.3227996826172	196.9613800048828	918.510498046875	134.104736328125	218.3836364746094	926.12890625	-115.1859970092773	302.074951171875	487.0207824707031	-133.735107421875	246.7136077880859	615.19091796875	-166.5096282958984	320.1364135742188	41.05101776123047	-75.58641052246094	307.7606201171875	254.5127258300781	-115.4443283081055	526.2190551757812	31.80587959289551	-8.695614814758301	454.8689575195312	28.14359664916992	27.08100318908691	446.3650207519531	42.43395614624023	-84.36859130859375	274.0030212402344	37.78472137451172	-16.29187202453613	63.97885513305664	438.7094116210938	144.4687957763672	115.3384399414062	698.4205322265625	183.8712463378906	7.16797399520874	324.3408813476562	123.0790252685547	-94.41580200195312	42.4293327331543	1.255223989486694	-143.9349365234375	59.25934219360352	-23.28767776489258	-155.1960296630859	40.22359466552734	94.27545928955078	-289.9555969238281	141.2978668212891	61.14862442016602	-242.2626037597656	101.5405883789062	94.623291015625	
